<svg xmlns="http://www.w3.org/2000/svg" id="Layer_1" x="0" y="0" version="1.1" viewBox="0 0 29 29" xml:space="preserve"><path d="M21 2H8a2 2 0 0 0-2 2v21a2 2 0 0 0 2 2h13a2 2 0 0 0 2-2V4a2 2 0 0 0-2-2zM9.5 17a1.5 1.5 0 1 1-.001 3.001A1.5 1.5 0 0 1 9.5 17zM8 13.5a1.5 1.5 0 1 1 3.001.001A1.5 1.5 0 0 1 8 13.5zM14.5 25h-5a1.5 1.5 0 0 1 0-3h5a1.5 1.5 0 0 1 0 3zm0-5a1.5 1.5 0 1 1 .001-3.001A1.5 1.5 0 0 1 14.5 20zm0-5a1.5 1.5 0 1 1 .001-3.001A1.5 1.5 0 0 1 14.5 15zm5 10a1.5 1.5 0 1 1 .001-3.001A1.5 1.5 0 0 1 19.5 25zm0-5a1.5 1.5 0 1 1 .001-3.001A1.5 1.5 0 0 1 19.5 20zm0-5a1.5 1.5 0 1 1 .001-3.001A1.5 1.5 0 0 1 19.5 15zM21 8a2 2 0 0 1-2 2h-9a2 2 0 0 1-2-2V6a2 2 0 0 1 2-2h9a2 2 0 0 1 2 2v2z"/></svg>